<?xml version="1.0" encoding="UTF-8"?>
<svg version="1.1" xmlns="http://www.w3.org/2000/svg" width="100" height="100">
<path d="M0 0 C12.87 0 25.74 0 39 0 C39 3.96 39 7.92 39 12 C26.13 12 13.26 12 0 12 C0 8.04 0 4.08 0 0 Z " fill="#769FCF" transform="translate(48,68)"/>
<path d="M0 0 C12.87 0 25.74 0 39 0 C39 3.96 39 7.92 39 12 C26.13 12 13.26 12 0 12 C0 8.04 0 4.08 0 0 Z " fill="#78A2D2" transform="translate(48,44)"/>
<path d="M0 0 C12.87 0 25.74 0 39 0 C39 3.96 39 7.92 39 12 C26.13 12 13.26 12 0 12 C0 8.04 0 4.08 0 0 Z " fill="#769FCF" transform="translate(48,20)"/>
<path d="M0 0 C2.1875 1.0625 2.1875 1.0625 4.1875 3.0625 C4.27053015 6.89572508 2.65260423 8.91831875 0.203125 11.6484375 C-1.04134844 12.92203691 -2.29699125 14.18480004 -3.5625 15.4375 C-4.49449219 16.41783203 -4.49449219 16.41783203 -5.4453125 17.41796875 C-10.02687609 22.00919808 -10.02687609 22.00919808 -13.4609375 22.2421875 C-16.36775173 20.78395179 -18.37506486 19.10218988 -20.6875 16.8125 C-21.48929688 16.04421875 -22.29109375 15.2759375 -23.1171875 14.484375 C-24.8125 12.0625 -24.8125 12.0625 -24.6953125 9.390625 C-23.8125 7.0625 -23.8125 7.0625 -21.8125 5.0625 C-18.85587034 5.28993305 -17.26216312 5.67485938 -15 7.625 C-14.608125 8.099375 -14.21625 8.57375 -13.8125 9.0625 C-10.56490554 7.66255228 -8.69629333 6.0179506 -6.375 3.375 C-3.18036185 0.07067471 -3.18036185 0.07067471 0 0 Z " fill="#22272F" transform="translate(37.8125,62.9375)"/>
<path d="M0 0 C2.1875 1.0625 2.1875 1.0625 4.1875 3.0625 C4.27053015 6.89572508 2.65260423 8.91831875 0.203125 11.6484375 C-1.04134844 12.92203691 -2.29699125 14.18480004 -3.5625 15.4375 C-4.49449219 16.41783203 -4.49449219 16.41783203 -5.4453125 17.41796875 C-10.02687609 22.00919808 -10.02687609 22.00919808 -13.4609375 22.2421875 C-16.36775173 20.78395179 -18.37506486 19.10218988 -20.6875 16.8125 C-21.48929688 16.04421875 -22.29109375 15.2759375 -23.1171875 14.484375 C-24.8125 12.0625 -24.8125 12.0625 -24.6953125 9.390625 C-23.8125 7.0625 -23.8125 7.0625 -21.8125 5.0625 C-18.85587034 5.28993305 -17.26216312 5.67485938 -15 7.625 C-14.608125 8.099375 -14.21625 8.57375 -13.8125 9.0625 C-10.56490554 7.66255228 -8.69629333 6.0179506 -6.375 3.375 C-3.18036185 0.07067471 -3.18036185 0.07067471 0 0 Z " fill="#22272F" transform="translate(37.8125,38.9375)"/>
<path d="M0 0 C2.1875 1.0625 2.1875 1.0625 4.1875 3.0625 C4.27053015 6.89572508 2.65260423 8.91831875 0.203125 11.6484375 C-1.04134844 12.92203691 -2.29699125 14.18480004 -3.5625 15.4375 C-4.49449219 16.41783203 -4.49449219 16.41783203 -5.4453125 17.41796875 C-10.02687609 22.00919808 -10.02687609 22.00919808 -13.4609375 22.2421875 C-16.36775173 20.78395179 -18.37506486 19.10218988 -20.6875 16.8125 C-21.48929688 16.04421875 -22.29109375 15.2759375 -23.1171875 14.484375 C-24.8125 12.0625 -24.8125 12.0625 -24.6953125 9.390625 C-23.8125 7.0625 -23.8125 7.0625 -21.8125 5.0625 C-18.85587034 5.28993305 -17.26216312 5.67485938 -15 7.625 C-14.608125 8.099375 -14.21625 8.57375 -13.8125 9.0625 C-10.56490554 7.66255228 -8.69629333 6.0179506 -6.375 3.375 C-3.18036185 0.07067471 -3.18036185 0.07067471 0 0 Z " fill="#22272F" transform="translate(37.8125,14.9375)"/>
<path d="M0 0 C12.87 0 25.74 0 39 0 C39 3.96 39 7.92 39 12 C26.13 12 13.26 12 0 12 C0 8.04 0 4.08 0 0 Z M2 2 C2 4.64 2 7.28 2 10 C13.55 10 25.1 10 37 10 C37 7.36 37 4.72 37 2 C25.45 2 13.9 2 2 2 Z " fill="#1F212B" transform="translate(48,20)"/>
<path d="M0 0 C12.87 0 25.74 0 39 0 C39 3.96 39 7.92 39 12 C26.13 12 13.26 12 0 12 C0 8.04 0 4.08 0 0 Z M2 2 C2 4.64 2 7.28 2 10 C13.55 10 25.1 10 37 10 C37 7.36 37 4.72 37 2 C25.45 2 13.9 2 2 2 Z " fill="#1F212B" transform="translate(48,68)"/>
<path d="M0 0 C12.87 0 25.74 0 39 0 C39 3.96 39 7.92 39 12 C26.13 12 13.26 12 0 12 C0 8.04 0 4.08 0 0 Z M2 2 C2 4.64 2 7.28 2 10 C13.55 10 25.1 10 37 10 C37 7.36 37 4.72 37 2 C25.45 2 13.9 2 2 2 Z " fill="#1F202A" transform="translate(48,44)"/>
<path d="M0 0 C0.99 0.33 1.98 0.66 3 1 C1.38989473 5.07376031 -1.53822271 7.76507069 -4.625 10.75 C-5.140625 11.25660156 -5.65625 11.76320313 -6.1875 12.28515625 C-7.45383339 13.52803902 -8.7263144 14.76465276 -10 16 C-14.29378813 14.07712966 -16.77153701 11.37521131 -20 8 C-19.67 7.01 -19.34 6.02 -19 5 C-16.11562221 6.29299694 -14.12780579 7.65941363 -12 10 C-8.54798361 8.52278578 -6.35038064 6.56205999 -3.75 3.875 C-2.69039062 2.78832031 -2.69039062 2.78832031 -1.609375 1.6796875 C-1.07828125 1.12539062 -0.5471875 0.57109375 0 0 Z " fill="#5DB88E" transform="translate(36,66)"/>
<path d="M0 0 C0.99 0.33 1.98 0.66 3 1 C1.38989473 5.07376031 -1.53822271 7.76507069 -4.625 10.75 C-5.140625 11.25660156 -5.65625 11.76320313 -6.1875 12.28515625 C-7.45383339 13.52803902 -8.7263144 14.76465276 -10 16 C-14.29378813 14.07712966 -16.77153701 11.37521131 -20 8 C-19.67 7.01 -19.34 6.02 -19 5 C-16.11562221 6.29299694 -14.12780579 7.65941363 -12 10 C-8.54798361 8.52278578 -6.35038064 6.56205999 -3.75 3.875 C-2.69039062 2.78832031 -2.69039062 2.78832031 -1.609375 1.6796875 C-1.07828125 1.12539063 -0.5471875 0.57109375 0 0 Z " fill="#5DB88E" transform="translate(36,42)"/>
<path d="M0 0 C0.99 0.33 1.98 0.66 3 1 C1.38989473 5.07376031 -1.53822271 7.76507069 -4.625 10.75 C-5.140625 11.25660156 -5.65625 11.76320313 -6.1875 12.28515625 C-7.45383339 13.52803902 -8.7263144 14.76465276 -10 16 C-14.29378813 14.07712966 -16.77153701 11.37521131 -20 8 C-19.67 7.01 -19.34 6.02 -19 5 C-16.11562221 6.29299694 -14.12780579 7.65941363 -12 10 C-8.54798361 8.52278578 -6.35038064 6.56205999 -3.75 3.875 C-2.69039062 2.78832031 -2.69039062 2.78832031 -1.609375 1.6796875 C-1.07828125 1.12539063 -0.5471875 0.57109375 0 0 Z " fill="#5DB88E" transform="translate(36,18)"/>
</svg>
